PathFileType	4	(X/Y/Z)	/Users/niels/Desktop/University/Third Semester/Perception and Action/Exam/Gymnastics Motion Tracking/Code for Gym Tracking/Analyzed Data/Webcam_Backflip/temp_id5_4_trajectory_Sports2D/temp_id5_4_trajectory_Sports2D_px_person00.trc
DataRate	CameraRate	NumFrames	NumMarkers	Units	OrigDataRate	OrigDataStartFrame	OrigNumFrames
29.8125	29.8125	12	22	m	29.8125	0	160
Frame#	Time	Hip			RHip			RKnee			RAnkle			RBigToe			RSmallToe			RHeel			LHip			LKnee			LAnkle			LBigToe			LSmallToe			LHeel			Neck			Head			Nose			RShoulder			RElbow			RWrist			LShoulder			LElbow			LWrist		
		X1	Y1	Z1	X2	Y2	Z2	X3	Y3	Z3	X4	Y4	Z4	X5	Y5	Z5	X6	Y6	Z6	X7	Y7	Z7	X8	Y8	Z8	X9	Y9	Z9	X10	Y10	Z10	X11	Y11	Z11	X12	Y12	Z12	X13	Y13	Z13	X14	Y14	Z14	X15	Y15	Z15	X16	Y16	Z16	X17	Y17	Z17	X18	Y18	Z18	X19	Y19	Z19	X20	Y20	Z20	X21	Y21	Z21	X22	Y22	Z22
0	0.0	0.9820530073789435	-0.5701631749791004	0.0	0.9838053289408368	-0.5701613861558034	0.0	0.9820540657939261	-0.6803299148295631	0.0	0.9645564517301546	-0.7869868256804694	0.0	0.9995287249994456	-0.8062287722315413	0.0	0.9925352114304408	-0.8079737063151987	0.0	0.9558124985832053	-0.8009758107390416	0.0	0.9768138482648232	-0.568414046123169	0.0	0.9803045755132763	-0.6785821433830066	0.0	0.9645562744960535	-0.780003078475949	0.0	0.9995340561020098	-0.7992284755419888	0.0	0.9960424776236607	-0.7957328983041769	0.0	0.9540783354781186	-0.793989790909761	0.0	0.9855385388559093	-0.4197735569038038	0.0	0.9995294959535168	-0.3533316805837841	0.0	1.0170150698793328	-0.38305207741804254	0.0	0.9925289577020792	-0.4250285910458127	0.0	1.051924816671521	-0.39359507230278806	0.0	1.09211446374595	-0.33767728904299354	0.0	0.9680576550815054	-0.4320221398895057	0.0	0.9767604239899266	-0.4862684697260387	0.0	1.002960367352149	-0.5055371634950097	0.0
1	0.03354297693920335	0.9792642181742346	-0.5672803221448648	0.0	0.9805710672297053	-0.5665101962255048	0.0	0.9838799000314346	-0.6770334912695751	0.0	0.9642075160777044	-0.7834850838254998	0.0	0.9996336916244795	-0.8030182136119289	0.0	0.9927322867865654	-0.8054171624202584	0.0	0.9551090373898123	-0.7978376207922921	0.0	0.9742129871707995	-0.5647139645764024	0.0	0.9815304187765149	-0.6754165039985718	0.0	0.9644995220107607	-0.7767172900212428	0.0	0.9984670701837414	-0.7963776307469503	0.0	0.994823712211213	-0.7930676169576472	0.0	0.9530674489536873	-0.7906640577134901	0.0	0.9875741384740874	-0.41856736901880753	0.0	1.0031997401748443	-0.3519195020451896	0.0	1.0194679766294774	-0.3824778583891089	0.0	0.9941417667114302	-0.42376583617541874	0.0	1.0557342417865023	-0.39536130496431526	0.0	1.1004750807061656	-0.34085375441707283	0.0	0.9700991867253875	-0.42932821311036845	0.0	0.9735783045817562	-0.47945158631845597	0.0	0.9982301170295079	-0.4932274224532618	0.0
2	0.0670859538784067	0.9762518287761232	-0.5647599126112972	0.0	0.9772061856489388	-0.5632955216225147	0.0	0.9859554210459204	-0.67397141340846	0.0	0.9638394582048742	-0.7799863789957924	0.0	0.9996790559020569	-0.7998514003759621	0.0	0.9928029945159732	-0.8027469755981762	0.0	0.9543813396198261	-0.7947696077448164	0.0	0.9714014227954031	-0.5614567841713254	0.0	0.9828294331813615	-0.6724590808111074	0.0	0.9643735752100501	-0.7733776068023652	0.0	0.9977951810627606	-0.793548281927536	0.0	0.9940815957985184	-0.7904518926762419	0.0	0.952128875055756	-0.7874589203130059	0.0	0.9895999454823627	-0.4177427849110655	0.0	1.0067354487647078	-0.3508473605799131	0.0	1.0217402033393828	-0.3824252474610991	0.0	0.9957857575750363	-0.42300505958543483	0.0	1.059627050091006	-0.39799064060075123	0.0	1.1089869804046504	-0.34551341741756947	0.0	0.9721778187271032	-0.42707199493741216	0.0	0.9717145324122956	-0.4720602378168505	0.0	0.9942353312611245	-0.47797423427157376	0.0
3	0.10062893081761004	0.9730017806703983	-0.5629815525554004	0.0	0.973685653054646	-0.5609933630947945	0.0	0.9884543865448673	-0.6713928237203991	0.0	0.963484469719729	-0.7766021390733122	0.0	0.9996864671667175	-0.7968076500282586	0.0	0.9927045397691001	-0.7999739747780135	0.0	0.9536171390395527	-0.7918687634007977	0.0	0.9683748722376008	-0.559131017456353	0.0	0.9843063434393339	-0.6699348915587096	0.0	0.9641925014798919	-0.7701036395458116	0.0	0.9978027662487845	-0.7908550211195509	0.0	0.9940841514473951	-0.7879993934133409	0.0	0.951304285931204	-0.7845392566202181	0.0	0.9915868395421842	-0.4176555596146072	0.0	1.0100832248754839	-0.3504508682192594	0.0	1.023790110530701	-0.38332619606198143	0.0	0.997412408970222	-0.4231423534575468	0.0	1.0634468900138692	-0.4023050982615165	0.0	1.1174945642033196	-0.3530565345112078	0.0	0.9743459473191173	-0.42569842657080037	0.0	0.9725848705493428	-0.464082652250437	0.0	0.992033243747977	-0.4594015510157428	0.0
4	0.1341719077568134	0.9697182067011247	-0.5623087786021637	0.0	0.9701201487725781	-0.5600094448696759	0.0	0.9914278462048938	-0.6694858775603291	0.0	0.9632146647853119	-0.773553038334777	0.0	0.9997797473294208	-0.7939933346857423	0.0	0.9925159830909798	-0.7972283002450838	0.0	0.9528431410454166	-0.7892480571952661	0.0	0.9653710387593375	-0.5581763768441609	0.0	0.9861233649268051	-0.6680517651449326	0.0	0.9640541342696675	-0.767165567007292	0.0	0.9985613059668731	-0.7884952529354402	0.0	0.9948014011186564	-0.7858658415559258	0.0	0.9505691774346899	-0.7820686327573318	0.0	0.9934771721148966	-0.41854862516912816	0.0	1.013198881428512	-0.35101775877300395	0.0	1.0256941511017192	-0.3853854793203402	0.0	0.9988887191452596	-0.4244199116276636	0.0	1.066827274911481	-0.4088829052959486	0.0	1.125542109221788	-0.3644116887180136	0.0	0.9766416462676917	-0.4255981644491402	0.0	0.9776746466376104	-0.45648515577956755	0.0	0.9933766947265837	-0.44106144143807835	0.0
5	0.16771488469601675	0.9666749443617283	-0.5630946351015222	0.0	0.9666977716249143	-0.5606307350583346	0.0	0.9948060543773956	-0.6684199584581925	0.0	0.963111612753247	-0.7711941538738135	0.0	1.0001265885075794	-0.7916299215482239	0.0	0.9924153523770737	-0.7948021590822003	0.0	0.9521408990125139	-0.7871207618140115	0.0	0.9627377132557142	-0.5589271872880651	0.0	0.9885063783854239	-0.6670588486088658	0.0	0.9640920955267441	-0.7649412370826305	0.0	0.9999362458314961	-0.7867766781002001	0.0	0.9959937834681147	-0.784305920767328	0.0	0.9498724390556391	-0.7802148913904305	0.0	0.9952184266258661	-0.42058893318089696	0.0	1.015924935506817	-0.35280772950661005	0.0	1.0274954192222425	-0.3886177488314603	0.0	1.00003826470204	-0.4270118336949382	0.0	1.0693320392065229	-0.41804063474320424	0.0	1.132491553566395	-0.3799822594321894	0.0	0.9790651302701173	-0.4271010654800861	0.0	0.9881539480273065	-0.4511823592234775	0.0	1.0007753762964595	-0.4287453953687847	0.0
6	0.20125786163522008	0.9640726238940818	-0.5656047821696534	0.0	0.963611409092429	-0.5630366034948567	0.0	0.9984348128392465	-0.6684526717473306	0.0	0.9632197876374339	-0.7700133931882697	0.0	1.0008456220841853	-0.7901304323687495	0.0	0.9925987728594263	-0.7931852548593349	0.0	0.9516180407174436	-0.7858775185645028	0.0	0.9607472450122069	-0.5615756545059121	0.0	0.9916417355506403	-0.6672669209851148	0.0	0.9643961457677194	-0.7638694713126665	0.0	1.0016978243701522	-0.7861115534079712	0.0	0.9973877814151453	-0.7836906645033831	0.0	0.9492177567492212	-0.7792014641878472	0.0	0.996785033974439	-0.42390979634717035	0.0	1.0180013545592004	-0.3560472096366247	0.0	1.0291204418982824	-0.3929857214163839	0.0	1.0007057267559079	-0.43104432593509057	0.0	1.070576231851603	-0.42983861680046764	0.0	1.1376347479394644	-0.399739684459936	0.0	0.9816003175301454	-0.43041107450380545	0.0	1.0039109650943727	-0.4500109164314645	0.0	1.0168006421983633	-0.426417693693092	0.0
7	0.23480083857442344	0.9620141872844237	-0.5699052603866558	0.0	0.961063967803082	-0.5672961213087088	0.0	1.0021295754858768	-0.6699268967632399	0.0	0.9635088833544453	-0.7705303526623265	0.0	1.0019458213761108	-0.7900312764313248	0.0	0.9931813700305897	-0.7929755108749957	0.0	0.9513507308821368	-0.7860166173151784	0.0	0.9595402835776913	-0.5661246332495203	0.0	0.9955086456319691	-0.6689677353175375	0.0	0.964955011297979	-0.7643470807194063	0.0	1.0036264122979917	-0.7869101695853395	0.0	0.9987650720661104	-0.7843820880863173	0.0	0.9486855983556215	-0.7793127173898772	0.0	0.9981252521370682	-0.4285749493894397	0.0	1.0192277729721997	-0.3608885903599942	0.0	1.0304510009230452	-0.3984691391509566	0.0	1.000779928459779	-0.4365793697111038	0.0	1.0702548797734233	-0.44415631838001574	0.0	1.1402531170184669	-0.423397366578412	0.0	0.9842238766330332	-0.43554541614051406	0.0	1.022451894870631	-0.4537472924068245	0.0	1.041754048589915	-0.43436354883403233	0.0
8	0.2683438155136268	0.9605751838621807	-0.5758350024704353	0.0	0.9592853927756616	-0.5733127794117069	0.0	1.0057033500815218	-0.6731087389994809	0.0	0.9638964767776211	-0.7730774216713229	0.0	1.0033047538202426	-0.7917742252695738	0.0	0.9941298666972626	-0.7946557211202591	0.0	0.951335397544208	-0.7879150507505442	0.0	0.9591922053661639	-0.5723543948810988	0.0	0.9998163925411541	-0.672333359537554	0.0	0.9656842295500365	-0.7665914810058134	0.0	1.0055417755875713	-0.7894071531824597	0.0	0.9999649916449679	-0.7865847532312605	0.0	0.9483893014800646	-0.7808051887052812	0.0	0.9991257856923829	-0.43452143023967177	0.0	1.0196174922028745	-0.36731943608456197	0.0	1.0314218610985821	-0.4049980672831028	0.0	1.000195410644968	-0.44358707733011665	0.0	1.068132275121377	-0.46077558656520134	0.0	1.1397075312726772	-0.45049731527781745	0.0	0.9868410706003737	-0.44235199367281364	0.0	1.039526065197081	-0.46219049247527805	0.0	1.0710113204738338	-0.4506076009859584	0.0
9	0.3018867924528301	0.959858697353135	-0.5830615060645528	0.0	0.95847452617963	-0.5807910391511234	0.0	1.008997119568018	-0.6780288530403084	0.0	0.9643005760234068	-0.7775945450112022	0.0	1.0046741682692522	-0.7954955096627986	0.0	0.9952471463733814	-0.7983776842715908	0.0	0.9514710614960746	-0.7916125780985462	0.0	0.9597416097320632	-0.5798673177242292	0.0	1.00411770805645	-0.6773639437744557	0.0	0.9664824842752241	-0.7705669828428693	0.0	1.007282413763882	-0.793522439821155	0.0	1.0008852641380006	-0.7902856784785253	0.0	0.9484375727841436	-0.7838160324034187	0.0	0.9996598743095442	-0.4415641446138044	0.0	1.0193982755445805	-0.37507762385769733	0.0	1.0320359079944568	-0.4123779136328789	0.0	0.9989820364945985	-0.45190001588200235	0.0	1.0640319934366242	-0.47935606414726795	0.0	1.1355323578513123	-0.4803396427335199	0.0	0.9892398198017124	-0.4505514259536633	0.0	1.0516340293759199	-0.47465278864113924	0.0	1.0965788191862962	-0.4726408165258499	0.0
10	0.3354297693920335	0.9599338317621879	-0.5911456734970925	0.0	0.9587070427328812	-0.5892515922294499	0.0	1.011927909299357	-0.6844414686106298	0.0	0.9646771267394731	-0.7836170817786738	0.0	1.0057597087168895	-0.8009582839418434	0.0	0.996255691462661	-0.803878676803605	0.0	0.9516200187247043	-0.7967814042881475	0.0	0.9611250626016724	-0.5881759153909624	0.0	1.0080050820387392	-0.6838517188496636	0.0	0.9672553723889618	-0.776017231651759	0.0	1.0087187558653463	-0.798880862694819	0.0	1.0015241781638677	-0.7952511852559867	0.0	0.9489240539350428	-0.7883070218205912	0.0	0.999681214207565	-0.44940533695039564	0.0	1.018880881670152	-0.383685904111905	0.0	1.032342961297218	-0.42029626551065674	0.0	0.9973181042584128	-0.4611857467152263	0.0	1.0578734720681882	-0.49929985794194626	0.0	1.1275250275652489	-0.5118275378719495	0.0	0.9911844351335852	-0.4597303980817109	0.0	1.0575743490238276	-0.49010968381707604	0.0	1.1124315095202053	-0.49806852556401654	0.0
11	0.36897274633123683	0.9607115727847939	-0.5995853147247571	0.0	0.9598897533922025	-0.5980701569909112	0.0	1.0144775192168374	-0.6918686580456278	0.0	0.9650371679603816	-0.7904673733889435	0.0	1.0063242332189692	-0.8076337388677438	0.0	0.9969316739957709	-0.8105635272175722	0.0	0.951724081745684	-0.8028683261861103	0.0	0.9630880272323552	-0.596741226169359	0.0	1.0112269690941647	-0.6913483082742488	0.0	0.9679368849790927	-0.782529807527321	0.0	1.0097913830508083	-0.8049821524168612	0.0	1.0020094412623388	-0.8010632959839465	0.0	0.9498755246909989	-0.7940044831320712	0.0	0.9992829733978492	-0.4576031213790666	0.0	1.0183247230796961	-0.39256674668179825	0.0	1.032439215951882	-0.4283585529788364	0.0	0.995509563078608	-0.47094854063573466	0.0	1.0497881930430304	-0.5196205017578854	0.0	1.1158204680083017	-0.5433770149006596	0.0	0.9925471676201122	-0.4693120559155194	0.0	1.0579148679802193	-0.5072016171203674	0.0	1.1171797699303323	-0.5246916979424917	0.0
